<?xml version="1.0" standalone="no"?>
<!DOCTYPE svg PUBLIC "-//W3C//DTD SVG 20010904//EN"
 "http://www.w3.org/TR/2001/REC-SVG-20010904/DTD/svg10.dtd">
<svg version="1.0" xmlns="http://www.w3.org/2000/svg"
 width="403.000000pt" height="266.000000pt" viewBox="0 0 403.000000 266.000000"
 preserveAspectRatio="xMidYMid meet">

<g transform="translate(0.000000,266.000000) scale(0.100000,-0.100000)"
fill="#000000" stroke="none">
<path d="M110 1959 c0 -365 -4 -567 -10 -580 -6 -10 -25 -26 -42 -35 l-32 -16
31 -13 c17 -8 36 -22 42 -34 8 -13 11 -198 11 -580 l0 -561 1900 0 1900 0 0
558 c0 616 -3 589 64 617 l31 13 -26 10 c-15 6 -36 23 -48 38 -21 27 -21 30
-21 585 l0 559 -1900 0 -1900 0 0 -561z m3790 -12 l0 -564 -22 -20 c-13 -11
-32 -23 -43 -27 -18 -7 -17 -9 12 -21 17 -7 36 -22 42 -34 8 -13 11 -197 11
-575 l0 -556 -1890 0 -1890 0 0 560 0 561 25 24 c13 14 34 25 47 25 19 1 17 4
-14 21 -21 10 -42 28 -48 38 -6 13 -10 213 -10 575 l0 556 1890 0 1890 0 0
-563z"/>
<path d="M1659 2107 c-40 -27 -60 -77 -48 -122 11 -37 62 -85 92 -85 12 0 66
-10 121 -22 87 -20 120 -37 103 -54 -3 -3 -62 -20 -131 -39 -147 -39 -190 -67
-230 -147 -26 -52 -35 -105 -16 -93 6 3 10 15 10 26 0 18 36 99 44 99 1 0 3
-14 4 -32 2 -63 60 -112 125 -104 46 5 82 36 98 83 9 28 8 40 -10 75 -11 23
-19 43 -18 43 1 1 49 15 106 30 l104 28 238 -55 c228 -52 239 -54 245 -35 3
10 2 22 -3 26 -4 4 -77 29 -160 56 -84 27 -151 50 -149 52 2 2 73 23 157 47
135 37 154 45 157 64 5 30 -1 29 -272 -22 l-228 -43 -92 24 c-50 14 -92 26
-94 28 -1 1 5 18 13 38 20 49 3 103 -44 134 -43 29 -79 29 -122 0z m126 -21
c35 -35 41 -71 19 -115 -10 -20 -20 -39 -22 -42 -1 -4 30 -15 70 -24 73 -18
116 -34 90 -35 -18 0 -198 38 -247 53 -109 33 -88 187 25 187 30 0 47 -6 65
-24z m688 -147 c-11 -4 -170 -49 -354 -99 -184 -51 -337 -94 -341 -96 -4 -3 4
-21 17 -41 29 -42 31 -63 10 -103 -19 -36 -43 -50 -90 -50 -41 0 -80 32 -91
74 -7 29 10 78 33 98 8 6 76 28 151 48 130 35 137 39 140 64 4 30 32 36 32 6
0 -11 6 -20 14 -20 21 0 30 18 17 34 -8 10 39 22 227 57 211 41 295 50 235 28z
m-207 -150 c61 -20 91 -34 91 -44 0 -20 -10 -19 -32 5 -19 20 -41 28 -30 10
10 -16 -17 -11 -37 7 -13 12 -18 13 -18 3 0 -10 -5 -9 -18 3 -20 18 -47 23
-37 7 10 -16 -7 -12 -27 7 -13 11 -22 14 -26 7 -5 -7 -18 -8 -42 -1 l-35 10
40 13 c44 14 41 14 171 -27z m144 -54 c10 -12 10 -15 -3 -15 -8 0 -20 7 -27
15 -10 12 -10 15 3 15 8 0 20 -7 27 -15z m60 -15 c8 -5 12 -11 9 -14 -3 -3
-14 1 -25 9 -21 16 -8 20 16 5z"/>
<path d="M1676 2069 c-19 -15 -26 -30 -26 -54 0 -36 36 -75 70 -75 34 0 70 39
70 75 0 36 -36 75 -70 75 -10 0 -29 -9 -44 -21z m93 -30 c13 -24 13 -29 -2
-53 -33 -49 -99 -28 -99 31 0 55 74 71 101 22z"/>
<path d="M1676 1699 c-19 -15 -26 -30 -26 -54 0 -36 36 -75 70 -75 34 0 70 39
70 75 0 36 -36 75 -70 75 -10 0 -29 -9 -44 -21z m91 -25 c15 -24 15 -29 2 -53
-17 -31 -68 -41 -89 -16 -16 19 -16 60 0 80 20 25 67 19 87 -11z"/>
<path d="M1444 1272 c-13 -8 -117 -273 -110 -280 16 -16 38 21 84 140 29 74
52 137 52 141 0 9 -12 9 -26 -1z"/>
<path d="M2690 1266 c0 -8 5 -18 10 -21 6 -3 10 -17 10 -31 0 -21 -4 -24 -21
-19 -29 10 -74 -12 -88 -41 -21 -46 -9 -115 23 -136 17 -12 61 -9 75 5 11 10
14 10 18 0 7 -19 63 -17 63 2 0 8 -4 15 -10 15 -6 0 -10 47 -10 120 l0 120
-35 0 c-24 0 -35 -5 -35 -14z m20 -155 c0 -32 -5 -53 -16 -62 -34 -28 -75 33
-55 84 8 21 17 27 41 27 29 0 30 -1 30 -49z"/>
<path d="M2842 1271 c-20 -12 -10 -46 13 -46 14 0 20 7 20 24 0 27 -13 35 -33
22z"/>
<path d="M955 1245 c-45 -44 -22 -71 26 -31 25 21 34 24 50 15 26 -14 21 -51
-8 -64 -30 -13 -29 -33 1 -41 27 -6 38 -33 24 -58 -13 -23 -63 -21 -79 5 -18
26 -49 17 -42 -12 8 -29 43 -49 86 -49 70 0 113 74 68 119 -17 17 -17 20 -4
34 21 20 19 63 -2 87 -27 29 -89 27 -120 -5z"/>
<path d="M1155 1245 c-45 -44 -22 -71 26 -31 24 21 34 24 50 16 36 -20 23 -56
-46 -130 -36 -38 -65 -74 -65 -80 0 -6 36 -10 95 -10 l95 0 0 30 c0 29 -24 44
-32 19 -2 -6 -21 -9 -42 -7 l-39 3 47 52 c56 63 66 98 36 136 -29 37 -90 38
-125 2z"/>
<path d="M1542 1263 c-7 -3 -19 -17 -27 -33 -13 -25 -13 -29 1 -34 10 -4 25 3
39 18 15 17 30 23 44 19 42 -11 34 -73 -10 -73 -11 0 -19 -7 -19 -15 0 -8 6
-15 13 -15 28 0 50 -26 44 -52 -9 -36 -41 -41 -75 -14 -47 39 -73 9 -29 -32
15 -15 36 -22 61 -22 50 0 72 13 85 52 10 28 9 36 -9 60 -19 26 -19 30 -5 44
21 21 19 60 -5 84 -19 19 -76 26 -108 13z"/>
<path d="M1761 1188 c-34 -45 -60 -89 -59 -98 2 -11 19 -16 61 -18 56 -3 57
-4 57 -32 0 -23 5 -30 20 -30 15 0 20 7 20 29 0 20 6 30 20 34 11 3 20 12 20
21 0 9 -8 16 -20 16 -18 0 -20 7 -20 80 0 72 -2 80 -19 80 -12 0 -41 -30 -80
-82z m61 -30 c-4 -47 -5 -48 -39 -48 l-34 0 22 33 c26 38 52 68 54 65 1 -2 0
-24 -3 -50z"/>
<path d="M2042 1247 c-24 -26 -28 -65 -9 -90 6 -9 33 -25 60 -36 26 -11 47
-26 47 -34 0 -22 -23 -37 -58 -37 -26 0 -35 5 -39 20 -8 29 -27 19 -31 -15 -4
-35 10 -45 69 -45 65 0 99 28 99 80 0 43 -19 62 -73 75 -33 9 -51 37 -35 53 7
7 27 12 45 12 26 0 33 -4 33 -20 0 -11 7 -20 15 -20 21 0 21 66 -1 74 -9 3
-35 6 -58 6 -32 0 -48 -6 -64 -23z"/>
<path d="M2240 1224 c0 -17 -6 -28 -20 -31 -24 -6 -26 -21 -5 -29 11 -5 15
-21 15 -61 0 -73 12 -93 55 -93 18 0 36 4 39 8 8 13 -9 33 -25 30 -10 -2 -15
11 -17 54 -3 52 -1 57 19 60 33 4 36 28 5 28 -22 0 -26 4 -26 30 0 23 -4 30
-20 30 -15 0 -20 -7 -20 -26z"/>
<path d="M2984 1190 c-57 -23 -73 -112 -29 -155 24 -25 73 -33 110 -19 22 9
45 56 45 93 0 59 -71 105 -126 81z m72 -54 c15 -61 -16 -114 -53 -90 -26 16
-37 54 -24 87 8 21 17 27 41 27 23 0 31 -5 36 -24z"/>
<path d="M2350 1175 c0 -8 7 -15 15 -15 12 0 15 -13 15 -58 0 -44 5 -63 18
-75 21 -19 54 -22 83 -7 13 7 19 7 19 0 0 -5 14 -10 30 -10 20 0 30 5 30 15 0
8 -4 15 -10 15 -6 0 -10 32 -10 75 l0 75 -35 0 c-24 0 -35 -5 -35 -15 0 -8 5
-15 10 -15 6 0 10 -24 10 -54 0 -46 -3 -56 -20 -61 -36 -11 -50 12 -50 81 l0
64 -35 0 c-24 0 -35 -5 -35 -15z"/>
<path d="M2810 1175 c0 -8 5 -15 10 -15 6 0 10 -27 10 -60 0 -33 -4 -60 -10
-60 -5 0 -10 -7 -10 -15 0 -11 12 -15 50 -15 48 0 67 14 35 26 -11 5 -15 24
-15 80 l0 74 -35 0 c-24 0 -35 -5 -35 -15z"/>
<path d="M1403 622 c-12 -29 -18 -52 -12 -52 5 0 9 7 9 15 0 21 37 19 49 -2
20 -36 18 -6 -3 41 l-22 50 -21 -52z m31 3 c3 -9 0 -15 -9 -15 -9 0 -12 6 -9
15 4 8 7 15 9 15 2 0 5 -7 9 -15z"/>
<path d="M2413 659 c-44 -16 -21 -98 24 -86 14 4 13 5 -4 6 -31 1 -43 49 -19
67 10 7 24 10 32 7 8 -3 14 -3 14 0 0 11 -26 14 -47 6z"/>
<path d="M1272 613 l1 -48 4 43 c4 37 7 42 28 42 21 0 24 -5 28 -42 l4 -43 1
48 2 47 -35 0 -35 0 2 -47z"/>
<path d="M1501 613 c1 -27 3 -40 6 -30 3 10 16 22 29 27 14 6 24 18 24 30 0
16 -7 20 -30 20 -29 0 -30 -1 -29 -47z m49 22 c0 -8 -9 -15 -20 -15 -11 0 -20
7 -20 15 0 8 9 15 20 15 11 0 20 -7 20 -15z"/>
<path d="M1612 615 l-1 -50 24 30 c14 17 25 35 25 40 0 6 -9 -1 -19 -15 l-19
-24 -5 34 c-3 28 -4 24 -5 -15z"/>
<path d="M1667 618 c8 -59 13 -61 13 -5 0 26 -4 47 -9 47 -5 0 -7 -19 -4 -42z"/>
<path d="M1733 615 c0 -27 2 -40 4 -27 5 27 19 28 33 2 6 -11 16 -20 22 -20 6
0 1 11 -12 25 -23 25 -23 25 -4 47 19 23 19 23 -2 6 -11 -10 -23 -18 -27 -18
-3 0 -8 8 -10 18 -3 9 -5 -5 -4 -33z"/>
<path d="M1842 613 l1 -48 5 40 4 40 12 -32 c15 -44 27 -45 41 -3 l13 35 4
-40 5 -40 1 48 c2 57 -10 61 -30 10 l-14 -38 -13 38 c-17 51 -31 46 -29 -10z"/>
<path d="M1987 613 c-11 -33 -13 -42 -3 -30 7 9 20 17 29 17 9 0 21 -8 27 -17
9 -15 10 -14 4 7 -12 45 -23 70 -32 70 -4 0 -15 -21 -25 -47z m32 -2 c-15 -5
-22 6 -14 19 6 9 10 9 16 -1 5 -8 4 -15 -2 -18z"/>
<path d="M2090 655 c0 -6 5 -16 11 -22 8 -8 6 -19 -6 -39 l-17 -29 20 23 21
23 11 -21 c6 -12 14 -20 17 -17 2 3 -2 14 -9 26 -10 17 -10 25 0 41 7 11 8 20
3 20 -5 0 -12 -7 -15 -17 -6 -14 -8 -14 -21 3 -8 10 -15 14 -15 9z"/>
<path d="M2190 615 c0 -44 1 -45 33 -44 29 1 29 2 8 8 -33 9 -39 31 -9 32 l23
0 -22 9 c-13 5 -23 14 -23 19 0 5 10 12 23 14 19 4 18 4 -5 6 -27 1 -28 -1
-28 -44z"/>
<path d="M2291 613 c1 -26 4 -38 6 -26 3 13 13 23 26 25 34 5 29 42 -5 46 -27
3 -28 2 -27 -45z m47 25 c-7 -19 -38 -22 -38 -4 0 10 9 16 21 16 12 0 19 -5
17 -12z"/>
<path d="M2503 615 c0 -27 2 -39 4 -27 l5 24 24 -23 c27 -25 33 -16 7 13 -15
17 -15 20 3 41 18 21 18 21 -8 -1 l-26 -24 -5 24 c-2 12 -4 1 -4 -27z"/>
<path d="M2615 624 c-17 -41 -20 -68 -4 -41 5 9 17 17 26 17 9 0 22 -8 29 -17
10 -12 8 -3 -3 30 -10 26 -21 47 -25 47 -4 0 -15 -16 -23 -36z m35 -5 c0 -5
-7 -9 -15 -9 -9 0 -12 6 -9 15 6 15 24 11 24 -6z"/>
<path d="M2715 650 c-3 -5 -2 -18 4 -28 6 -11 6 -25 -1 -37 -8 -17 -6 -16 10
3 11 12 23 22 25 22 3 0 8 -10 10 -22 2 -13 5 -2 6 25 1 44 -1 47 -23 47 -14
0 -28 -4 -31 -10z m45 -15 c0 -8 -7 -15 -15 -15 -8 0 -15 7 -15 15 0 8 7 15
15 15 8 0 15 -7 15 -15z"/>
</g>
</svg>
